<svg width="57" height="34" viewBox="0 0 57 34" fill="none" xmlns="http://www.w3.org/2000/svg">
<path d="M2.40625 11.1562V8.59375H4.64062V11.1562H2.40625ZM2.5625 31V15H4.48438V31H2.5625ZM22.2344 25.5C22.2344 26.2604 22.0885 26.974 21.7969 27.6406C21.5156 28.3073 21.125 28.8906 20.625 29.3906C20.125 29.8906 19.5365 30.2865 18.8594 30.5781C18.1927 30.8594 17.4792 31 16.7188 31H9.625V8.59375H16.7188C17.4792 8.59375 18.1927 8.73958 18.8594 9.03125C19.5365 9.3125 20.125 9.70312 20.625 10.2031C21.125 10.7031 21.5156 11.2917 21.7969 11.9688C22.0885 12.6354 22.2344 13.349 22.2344 14.1094V25.5ZM20.2188 14.1094C20.2188 13.6094 20.125 13.1458 19.9375 12.7188C19.75 12.2812 19.4896 11.901 19.1562 11.5781C18.8333 11.2448 18.4531 10.9844 18.0156 10.7969C17.5885 10.6094 17.125 10.5156 16.625 10.5156H11.6406V29.0781H16.625C17.125 29.0781 17.5885 28.9844 18.0156 28.7969C18.4531 28.6094 18.8333 28.3542 19.1562 28.0312C19.4896 27.7083 19.75 27.3333 19.9375 26.9062C20.125 26.4688 20.2188 26 20.2188 25.5V14.1094Z" fill="#1976D2"/>
<path d="M31.4805 31L30.8164 29.9844C30.543 30.3555 30.2012 30.6517 29.791 30.873C29.3809 31.0879 28.9316 31.1953 28.4434 31.1953H28.1406C27.737 31.1953 27.3561 31.1204 26.998 30.9707C26.64 30.8145 26.3275 30.6029 26.0605 30.3359C25.7936 30.069 25.582 29.7565 25.4258 29.3984C25.276 29.0404 25.2012 28.6595 25.2012 28.2559V21H26.4023V28.3242C26.4023 28.5651 26.4479 28.793 26.5391 29.0078C26.6302 29.2161 26.7539 29.3984 26.9102 29.5547C27.0664 29.7109 27.2487 29.8346 27.457 29.9258C27.6719 30.0169 27.8997 30.0625 28.1406 30.0625H28.9414C29.1823 30.0625 29.4069 30.0169 29.6152 29.9258C29.8301 29.8346 30.0156 29.7109 30.1719 29.5547C30.3281 29.3984 30.4518 29.2161 30.543 29.0078C30.6341 28.793 30.6797 28.5651 30.6797 28.3242V21H31.8809V31H31.4805Z" fill="#1976D2"/>
<path d="M33.8828 31V30.4629L38.9219 22.1426H34.0781V21H40.5625V21.5371L35.5234 29.8574H40.5625V31H33.8828ZM42.8672 18.5977V16.9961H44.2637V18.5977H42.8672ZM42.9648 31V21H44.166V31H42.9648ZM53.8535 28.4609C53.8535 28.8646 53.7721 29.2357 53.6094 29.5742C53.4466 29.9062 53.2253 30.1927 52.9453 30.4336C52.6654 30.6745 52.3398 30.8633 51.9688 31C51.6042 31.1302 51.2201 31.1953 50.8164 31.1953H50.0156C49.612 31.1953 49.2246 31.1204 48.8535 30.9707C48.4889 30.8145 48.1667 30.6029 47.8867 30.3359C47.6133 30.069 47.3919 29.7565 47.2227 29.3984C47.0599 29.0404 46.9785 28.6595 46.9785 28.2559V27.8555L48.1797 27.6602V28.3242C48.1797 28.5651 48.2285 28.793 48.3262 29.0078C48.4303 29.2161 48.5671 29.3984 48.7363 29.5547C48.9056 29.7109 49.1009 29.8346 49.3223 29.9258C49.5436 30.0169 49.7747 30.0625 50.0156 30.0625H50.8164C51.0573 30.0625 51.2884 30.0267 51.5098 29.9551C51.7311 29.8835 51.9264 29.7826 52.0957 29.6523C52.2715 29.5156 52.4082 29.3529 52.5059 29.1641C52.61 28.9753 52.6621 28.7604 52.6621 28.5195C52.6621 28.1615 52.584 27.8685 52.4277 27.6406C52.2715 27.4128 52.0632 27.224 51.8027 27.0742C51.5488 26.918 51.2559 26.791 50.9238 26.6934C50.5983 26.5892 50.263 26.4883 49.918 26.3906C49.5729 26.2865 49.2344 26.1693 48.9023 26.0391C48.5768 25.9089 48.2839 25.7396 48.0234 25.5312C47.7695 25.3164 47.5645 25.0495 47.4082 24.7305C47.252 24.4115 47.1738 24.0143 47.1738 23.5391C47.1738 23.1354 47.252 22.7676 47.4082 22.4355C47.5645 22.097 47.776 21.8073 48.043 21.5664C48.3099 21.3255 48.6191 21.14 48.9707 21.0098C49.3288 20.873 49.7096 20.8047 50.1133 20.8047H50.8164C51.2201 20.8047 51.6009 20.8828 51.959 21.0391C52.3171 21.1888 52.6296 21.3971 52.8965 21.6641C53.1634 21.931 53.3717 22.2435 53.5215 22.6016C53.6777 22.9596 53.7559 23.3405 53.7559 23.7441V23.7832L52.5547 23.9785V23.6758C52.5547 23.4349 52.5091 23.2103 52.418 23.002C52.3268 22.7871 52.2031 22.6016 52.0469 22.4453C51.8906 22.2891 51.7051 22.1654 51.4902 22.0742C51.2819 21.9831 51.0573 21.9375 50.8164 21.9375H50.1133C49.8724 21.9375 49.6445 21.9733 49.4297 22.0449C49.2214 22.1165 49.0391 22.2207 48.8828 22.3574C48.7266 22.4876 48.6029 22.6471 48.5117 22.8359C48.4206 23.0247 48.375 23.2396 48.375 23.4805C48.375 23.8255 48.4531 24.1087 48.6094 24.3301C48.7656 24.5449 48.9707 24.7272 49.2246 24.877C49.485 25.0267 49.778 25.1536 50.1035 25.2578C50.4355 25.3555 50.7708 25.4596 51.1094 25.5703C51.4544 25.6745 51.7897 25.7949 52.1152 25.9316C52.4473 26.0684 52.7402 26.2441 52.9941 26.459C53.2546 26.6738 53.4629 26.944 53.6191 27.2695C53.7754 27.5885 53.8535 27.9857 53.8535 28.4609Z" fill="#252525"/>
<path d="M14 16.7826L20.092 22.2455C20.5391 22.6465 21.2363 22.5657 21.5798 22.0731L30 10" stroke="#EBD724" stroke-width="2" stroke-linecap="round"/>
</svg>
